PathFileType	4	(X/Y/Z)	Kaydara																																																																																																																									
DataRate	CameraRate	NumFrames	NumMarkers	Units	OrigDataRate	OrigDataStartFrame	OrigNumFrames																																																																																																																					
30	30	9	41	mm	30	106	144																																																																																																																					
Frame#	Time	EMLA_LFHD			EMLA_RFHD			EMLA_LBHD			EMLA_RBHD			EMLA_LFTShould			EMLA_RFTShould			EMLA_LRRShould			EMLA_RRRShould			EMLA_T10			EMLA_STRN			EMLA_TRUN			EMLA_LSHO			EMLA_LUPA			EMLA_LELB			EMLA_LFRM			EMLA_LWRA			EMLA_LWRB			EMLA_LFIN			EMLA_RSHO			EMLA_RUPA			EMLA_RELB			EMLA_RFRM			EMLA_RWRA			EMLA_RWRB			EMLA_RFIN			EMLA_LFWT			EMLA_RFWT			EMLA_LBWT			EMLA_RBWT			EMLA_LTHI			EMLA_LKNE			EMLA_LSHN			EMLA_LANK			EMLA_LHEE			EMLA_LTOE			EMLA_RTHI			EMLA_RKNE			EMLA_RSHN			EMLA_RANK			EMLA_RHEE			EMLA_RTOE		
		X1	Y1	Z1	X2	Y2	Z2	X3	Y3	Z3	X4	Y4	Z4	X5	Y5	Z5	X6	Y6	Z6	X7	Y7	Z7	X8	Y8	Z8	X9	Y9	Z9	X10	Y10	Z10	X11	Y11	Z11	X12	Y12	Z12	X13	Y13	Z13	X14	Y14	Z14	X15	Y15	Z15	X16	Y16	Z16	X17	Y17	Z17	X18	Y18	Z18	X19	Y19	Z19	X20	Y20	Z20	X21	Y21	Z21	X22	Y22	Z22	X23	Y23	Z23	X24	Y24	Z24	X25	Y25	Z25	X26	Y26	Z26	X27	Y27	Z27	X28	Y28	Z28	X29	Y29	Z29	X30	Y30	Z30	X31	Y31	Z31	X32	Y32	Z32	X33	Y33	Z33	X34	Y34	Z34	X35	Y35	Z35	X36	Y36	Z36	X37	Y37	Z37	X38	Y38	Z38	X39	Y39	Z39	X40	Y40	Z40	X41	Y41	Z41
																																																																																																																												
91	3.5	318.98066	1597.22443	-216.82562	148.52514	1587.90527	-219.48019	334.65096	1596.88019	-366.91902	139.83368	1589.19937	-372.00615	321.8494	1364.62601	-284.61929	174.96683	1356.80725	-277.48959	314.69839	1421.23077	-428.58356	158.43735	1413.30185	-422.83745	247.1073	1249.31007	-484.18297	249.918	1293.14163	-247.91765	247.43238	1188.62045	-235.41309	445.39505	1389.98413	-336.26343	504.8185	1211.0408	-330.9866	526.59557	1066.89796	-313.64613	516.50391	932.23595	-273.89797	422.267	827.45132	-153.34471	474.76315	784.03275	-207.23988	468.33141	772.31461	-138.62941	52.10327	1391.37344	-339.41765	-9.2661	1204.1423	-373.57212	-29.30027	1068.56606	-424.0313	-36.48581	974.40765	-456.49712	6.95576	784.94461	-394.18293	-33.35513	790.16373	-471.24252	-52.0189	746.78909	-426.20674	362.94136	957.72079	-297.13709	129.67041	946.72386	-283.0658	310.6348	980.93307	-495.39688	136.76695	967.29538	-470.19142	363.67924	709.19403	-504.86519	365.78991	499.62749	-479.20818	331.90132	315.36917	-487.17537	319.93439	148.90233	-579.89258	248.20026	75.69483	-646.01852	288.82374	55.08943	-451.99276	105.98288	658.06198	-358.38928	95.51651	509.8122	-196.92722	154.0741	286.12881	-179.09203	140.24931	122.41755	-263.40033	209.58057	73.07758	-305.29856	139.06339	58.6298	-119.90419
92	3.533	317.75663	1587.48383	-171.44129	147.42533	1577.05811	-174.06431	333.64719	1586.65573	-321.22231	139.01006	1577.65274	-326.64078	321.67408	1353.54965	-239.41729	174.27376	1344.94568	-232.25615	314.89134	1411.05911	-382.97726	158.82239	1402.33109	-377.78709	247.96507	1238.43605	-439.57752	249.78867	1281.61072	-202.86488	247.88027	1177.12532	-190.70833	444.62902	1379.98276	-290.55984	504.36085	1202.15752	-276.77315	526.87359	1060.11345	-247.01864	511.13018	929.48364	-193.57367	407.84119	841.91231	-67.49657	461.24561	790.83748	-112.4839	451.35155	788.01712	-43.7501	51.85637	1379.50409	-295.48212	-9.28819	1193.96454	-338.36731	-28.66925	1061.04095	-394.63669	-36.17002	969.32335	-431.95347	4.38933	776.15044	-379.66236	-34.55484	786.24313	-457.14699	-54.41496	740.64835	-415.32787	364.18991	948.16566	-254.23576	131.37	934.37119	-235.76469	307.81843	972.09251	-451.68095	134.37824	955.85854	-423.73047	361.0635	708.06625	-472.3317	366.60549	497.20741	-457.72125	332.13799	313.29235	-474.10595	319.34206	151.2807	-574.71634	246.98845	81.12434	-644.07417	288.79812	54.88966	-451.54118	115.49071	645.41321	-312.20203	101.38028	499.70016	-145.71557	158.41751	285.30075	-85.74686	138.49468	107.21769	-131.81539	205.76616	50.51805	-166.00075	142.64295	72.93336	22.23697
93	3.567	315.86266	1578.3168	-124.59406	145.58176	1567.07199	-127.38808	332.00649	1576.21658	-274.22853	137.52964	1566.27319	-279.96317	320.47276	1342.36877	-192.03377	172.66138	1333.31757	-185.05911	314.07471	1401.20117	-335.35759	157.93961	1391.53549	-330.30548	247.66579	1227.99721	-392.73746	248.61927	1270.34103	-155.8287	247.18191	1165.87746	-143.97444	442.97489	1370.60577	-242.53716	502.25578	1194.23286	-221.08761	525.82912	1054.23157	-182.73127	506.02894	928.56163	-118.256	396.02303	855.76004	11.77394	449.47998	799.20219	-26.1025	437.50954	803.703	42.20215	50.604	1368.00369	-249.27401	-9.91965	1184.04976	-299.50916	-28.33442	1053.68744	-360.58403	-35.77923	964.39415	-402.15225	2.40193	768.49541	-359.06284	-34.97725	783.02155	-437.03903	-55.90141	735.34592	-397.77966	364.7348	939.34151	-209.1963	133.32897	922.6976	-186.24765	304.1468	962.76787	-405.60932	131.34467	944.93446	-374.13727	358.30666	707.46857	-436.73065	367.5668	495.98248	-433.36689	333.39066	312.58652	-458.59806	320.16834	156.58511	-568.3033	247.54639	90.01472	-641.26251	289.07503	54.64807	-450.80242	117.63258	634.17698	-263.97055	104.58211	487.66983	-96.16001	161.89047	289.93715	-2.25653	135.00726	107.39622	-12.81556	198.11729	43.06638	-40.97901	153.78342	99.33776	146.16272
94	3.6	313.03232	1570.95779	-76.25768	142.71367	1559.50394	-79.22483	329.38484	1567.14966	-225.82621	134.98369	1556.99554	-231.74969	317.98395	1333.8887	-142.21453	170.31374	1323.84644	-135.94157	312.09461	1393.09677	-285.24729	156.14965	1382.92953	-280.60507	246.4917	1219.74144	-343.10844	246.45475	1261.33194	-106.34098	245.4273	1156.88698	-94.634	440.19455	1363.24249	-191.65543	499.76292	1188.17184	-166.00124	523.45528	1050.55649	-121.52366	500.65456	928.77762	-49.06897	387.25086	867.63321	83.82458	439.82365	807.36168	51.03777	427.30824	817.26913	118.66125	48.39313	1358.80707	-200.28936	-11.02053	1176.17737	-255.92533	-28.45706	1048.20511	-320.89493	-35.73879	960.8046	-365.62824	1.05707	762.89581	-330.54649	-35.56965	781.27708	-408.1123	-56.77444	731.75354	-371.66859	364.86359	931.58035	-162.02793	134.03154	914.71634	-133.97713	299.77268	953.89015	-356.58123	127.61658	936.09818	-321.84814	356.11904	707.76566	-395.77358	369.00829	496.05835	-402.85412	335.37167	313.86395	-438.68622	323.08365	165.31719	-558.52577	251.05156	104.07687	-636.27453	289.7669	54.56085	-449.21196	115.3504	624.48235	-212.05935	107.41206	478.01777	-42.55384	164.62399	294.28562	68.96462	131.43961	112.65508	81.33169	190.9425	44.34303	56.38556	162.44974	118.39846	241.15177
95	3.633	309.15188	1566.64612	-26.43713	138.8798	1554.89487	-29.51867	325.81299	1560.91232	-175.78875	131.48076	1550.34531	-182.00554	314.47788	1328.55453	-89.68891	166.8746	1317.67197	-84.55462	309.12926	1387.52777	-233.13089	153.39547	1376.97784	-228.72585	244.61859	1213.92914	-290.72206	242.95912	1255.60699	-54.12005	242.32252	1151.16982	-42.45889	436.49567	1359.26254	-138.77008	496.29364	1184.87061	-110.40125	520.53841	1048.34579	-64.16162	495.78281	929.19815	13.37353	381.20235	876.38947	148.66492	432.43301	813.63525	118.85515	420.4356	827.12807	185.89088	45.30965	1352.48062	-148.94638	-12.91473	1170.94078	-207.78643	-29.28702	1044.15382	-275.01949	-36.29159	958.23135	-322.03159	-0.28367	759.03603	-292.70914	-36.64887	780.29831	-369.72443	-57.47006	729.18968	-335.46692	363.56476	925.56152	-109.36522	132.81668	910.87303	-79.23264	295.07568	946.81175	-303.64756	123.66475	930.18784	-266.99942	354.37035	708.19824	-348.41637	370.94402	496.62373	-364.12109	338.06492	316.38342	-412.24232	327.29858	177.65198	-543.66917	256.08852	124.0429	-626.43459	290.81717	54.56824	-446.19732	111.49773	620.74604	-151.64757	106.76048	475.9026	17.36087	165.77469	291.41184	127.69046	133.2381	109.32951	140.83502	193.37963	41.51482	115.82998	165.95833	115.8766	301.0306
96	3.667	304.60602	1565.00473	24.59992	134.53716	1552.95364	21.3125	321.47972	1557.29385	-124.62567	127.27359	1546.28891	-130.97363	309.84007	1326.42334	-34.91644	162.3698	1314.84848	-30.64556	305.16804	1383.71918	-179.25388	149.91326	1373.04291	-175.47678	242.0838	1209.66782	-235.5619	238.35905	1253.20023	0.89638	237.98079	1148.90038	13.4262	432.05643	1357.64816	-84.03006	492.68459	1183.48503	-55.50824	517.72736	1047.10068	-10.11402	491.96209	929.067	69.58978	377.45594	880.81863	206.58932	427.19242	816.57097	177.62169	416.34361	831.75865	244.5487	41.23131	1348.86597	-96.01941	-15.79928	1167.69409	-155.38677	-31.32906	1041.10809	-223.51	-37.86732	956.04645	-271.6456	-1.95618	756.33667	-245.06176	-38.13004	778.91251	-321.73023	-58.71758	727.05421	-288.57153	360.86006	920.43266	-50.74664	129.16877	910.01823	-21.05728	290.69538	942.27531	-244.79958	119.64419	928.1855	-208.531	350.58456	707.67487	-293.31358	373.63171	497.31384	-316.2294	342.67773	320.29602	-378.35827	332.50134	193.60924	-521.93428	261.539	149.41593	-608.19321	291.32406	54.30548	-441.14071	105.17509	621.4547	-89.7415	104.74442	477.60681	78.31613	167.97125	280.02195	174.60577	138.98667	96.85504	170.18764	198.08197	35.5815	138.71501	172.01719	87.97173	330.55042
97	3.7	299.84863	1566.88629	76.52211	129.74301	1555.35706	73.38851	316.6217	1556.94	-72.54609	122.4436	1546.4093	-78.6598	305.28219	1327.8685	21.79058	157.26547	1315.03372	24.59311	300.7723	1383.09418	-124.07243	145.80302	1372.33307	-120.65094	238.95634	1207.68326	-177.82957	232.9974	1254.48532	57.73477	232.42962	1150.51125	72.17864	428.15903	1358.3078	-28.52612	489.24835	1183.68942	-1.04847	515.33928	1046.3987	41.31648	489.28398	927.99866	120.38221	375.52452	880.12962	257.87876	424.29729	815.43198	228.15783	414.31213	830.5011	295.29388	36.47771	1347.88025	-41.8858	-19.69204	1165.90416	-100.14808	-34.33609	1038.82858	-167.61429	-40.30968	953.66638	-215.54403	-4.65809	754.19479	-187.18889	-40.0789	776.2085	-264.49802	-60.78723	724.52286	-231.15795	354.90257	916.49063	12.27292	123.61503	917.16576	36.71201	288.62774	940.14038	-182.9034	115.3543	934.54063	-151.43542	346.46595	704.21104	-229.25076	377.22286	496.02486	-255.51487	348.75847	323.66905	-332.79919	338.39409	212.21142	-488.94669	266.20153	179.08144	-575.33752	291.97094	52.77707	-433.49117	99.73787	626.71764	-31.61875	101.30594	482.67696	137.4131	171.61234	277.83487	215.41286	137.97758	97.07081	193.70104	193.75273	44.4031	149.3609	184.35755	53.00657	351.75907
98	3.733	295.25232	1572.3494	128.87378	125.08252	1561.76788	126.24344	311.66702	1559.77783	-19.98284	117.44009	1550.37491	-25.66468	300.04766	1332.173	79.25008	152.54996	1319.28421	79.30846	298.4379	1387.60773	-66.37686	143.01734	1375.93338	-66.03394	237.95155	1212.45941	-119.28879	227.35064	1259.06113	114.41342	226.17247	1155.233	129.65803	424.58084	1362.71729	31.55198	486.26503	1186.24847	51.76759	513.10719	1048.22296	89.04833	487.60239	927.35962	164.1646	375.70297	875.1252	301.41947	423.96084	811.24001	268.94815	414.95777	824.23889	336.58787	32.53278	1351.12473	11.46285	-22.54003	1167.3098	-42.41316	-37.37078	1038.50876	-106.80371	-43.26952	952.36115	-152.65177	-7.33993	753.52524	-119.64227	-43.19996	773.78593	-197.20255	-63.70327	722.84988	-162.66363	345.78285	916.27235	74.29039	114.72825	927.44392	91.75754	291.10592	939.81422	-122.57434	116.08878	942.74986	-97.0774	343.85845	693.84399	-159.04232	382.06173	487.0377	-175.82947	356.87748	323.58501	-270.13138	342.00157	231.22086	-437.55783	267.18384	212.75045	-520.19428	292.90998	53.31499	-420.12173	88.06645	638.14884	21.16226	98.24292	492.39212	193.37154	170.37315	275.32125	246.04483	141.0294	98.52989	204.13008	194.42631	46.83196	152.32645	187.30064	48.0358	357.03735
99	3.767	291.46084	1579.01886	180.83248	121.2584	1569.17603	178.72164	307.39344	1565.20844	32.1384	113.36504	1556.59012	26.60058	296.02476	1339.64462	133.99375	148.81552	1326.34689	132.22157	296.95494	1394.19067	-11.87817	141.69189	1380.90546	-14.02459	239.61235	1217.59933	-66.27867	223.18344	1266.24321	168.66096	221.7573	1162.59064	184.91796	420.94822	1370.07065	88.98322	483.77235	1193.48663	105.59464	511.30077	1053.51891	133.77236	487.59232	928.03741	201.68924	377.70023	866.09116	336.30707	425.74245	804.47304	298.88367	418.30917	813.48618	367.52869	30.2994	1357.44751	61.65196	-24.78544	1171.49597	15.0637	-40.12851	1039.91737	-43.44398	-46.03059	951.64619	-85.23355	-11.48954	754.64607	-41.92235	-46.55011	771.27975	-120.80808	-67.3488	721.91086	-83.93456	338.35091	919.23561	129.18263	106.93715	935.86052	142.49784	289.64104	941.92818	-69.36823	113.73628	949.7995	-47.54469	341.11469	677.17377	-86.57868	383.59913	474.26991	-82.40057	359.47987	323.23887	-188.85065	345.08617	253.7752	-366.91959	270.69641	251.61795	-443.22105	301.00998	68.70549	-390.93319	82.21577	644.55185	65.54834	91.63085	488.81077	225.48754	168.30639	271.75095	263.30236	140.61656	98.11877	208.75443	194.26096	48.47466	152.38255	188.98865	47.50559	356.81633
